<?xml version="1.0" encoding="UTF-8" standalone="no"?>
<svg
   xmlns:dc="http://purl.org/dc/elements/1.1/"
   xmlns:cc="http://creativecommons.org/ns#"
   xmlns:rdf="http://www.w3.org/1999/02/22-rdf-syntax-ns#"
   xmlns:svg="http://www.w3.org/2000/svg"
   xmlns="http://www.w3.org/2000/svg"
   xmlns:sodipodi="http://sodipodi.sourceforge.net/DTD/sodipodi-0.dtd"
   xmlns:inkscape="http://www.inkscape.org/namespaces/inkscape"
   xml:space="preserve"
   width="854"
   height="480"
   viewBox="0 0 854 480"
   version="1.1"
   id="svg2"
   style="image-rendering:optimizeQuality;shape-rendering:geometricPrecision;text-rendering:geometricPrecision"
   inkscape:version="0.91 r13725"
   sodipodi:docname="who_we_are_1_text.svg"><metadata
     id="metadata10"><rdf:RDF><cc:Work
         rdf:about=""><dc:format>image/svg+xml</dc:format><dc:type
           rdf:resource="http://purl.org/dc/dcmitype/StillImage" /><dc:title /></cc:Work></rdf:RDF></metadata><sodipodi:namedview
     pagecolor="#ffffff"
     bordercolor="#666666"
     borderopacity="1"
     objecttolerance="10"
     gridtolerance="10"
     guidetolerance="10"
     inkscape:pageopacity="0"
     inkscape:pageshadow="2"
     inkscape:window-width="1366"
     inkscape:window-height="705"
     id="namedview8"
     showgrid="false"
     inkscape:zoom="0.71428571"
     inkscape:cx="393.58659"
     inkscape:cy="305.46312"
     inkscape:window-x="-8"
     inkscape:window-y="-8"
     inkscape:window-maximized="1"
     inkscape:current-layer="text4180" /><defs
     id="defs4"><style
       type="text/css"
       id="style6">
      
            .str0 {
                stroke: #00A9AE;
                stroke-width: 17.0814
            }
            
            .fil1 {
                fill: none
            }
            
            .fil0 {
                fill: #1F1A17
            }
            
            .fil2 {
                fill: #00A9AE
            }

        
    </style></defs><g
     transform="matrix(0.99999868,0,0,0.99999868,3.624798,1178.0599)"
     id="g8"><g
       transform="matrix(1.1434314,0,0,1.1434314,0.51991015,18.430993)"
       id="g10"><path
         d="m -2.2666235,-1044.8671 118.9933435,72.701 626.51713,1.70261"
         id="path16"
         style="fill:none;stroke:#00a9ae;stroke-width:5.21013546"
         inkscape:connector-curvature="0"
         sodipodi:nodetypes="ccc" /></g><g
       transform="scale(0.98980276,1.0103023)"
       style="font-style:normal;font-weight:normal;font-size:39.59210968px;line-height:125%;font-family:sans-serif;letter-spacing:0px;word-spacing:0px;fill:#00bebe;fill-opacity:1;stroke:none;stroke-width:1px;stroke-linecap:butt;stroke-linejoin:miter;stroke-opacity:1"
       id="text4180"><g
         transform="scale(1.0103023,0.98980276)"
         style="font-style:normal;font-weight:normal;font-size:40px;line-height:125%;font-family:sans-serif;letter-spacing:0px;word-spacing:0px;fill:#e6e6e6;fill-opacity:1;stroke:none;stroke-width:1px;stroke-linecap:butt;stroke-linejoin:miter;stroke-opacity:1"
         id="text4464"><path
           d="m 146.4654,-1043.4613 -1.10412,0 -4.59779,-17.7814 -0.0659,-0.9229 -0.0989,0.9229 -4.56483,17.7814 -1.10413,0 -6.27869,-23.6316 2.12586,0 4.63074,17.9626 0.0659,0.8735 0.0659,-0.8735 4.54835,-17.9626 1.18653,0 4.54834,17.9626 0.0659,0.8735 0.0824,-0.8735 4.61426,-17.9626 2.12586,0 -6.24574,23.6316 z"
           style="font-style:normal;font-variant:normal;font-weight:normal;font-stretch:normal;font-size:33.75004578px;font-family:Abel;-inkscape-font-specification:Abel;letter-spacing:1.00000131px;fill:#e6e6e6"
           id="path4624" /><path
           d="m 167.29026,-1048.092 q 0,1.0217 -0.39551,1.9281 -0.37903,0.9063 -1.05469,1.582 -0.67566,0.6756 -1.58203,1.0712 -0.90637,0.379 -1.9281,0.379 l -1.35132,0 q -1.02173,0 -1.92811,-0.379 -0.90637,-0.3956 -1.58203,-1.0712 -0.67566,-0.6757 -1.07117,-1.582 -0.37903,-0.9064 -0.37903,-1.9281 l 0,-7.6136 q 0,-1.0217 0.37903,-1.9281 0.39551,-0.9064 1.07117,-1.582 0.67566,-0.6757 1.58203,-1.0547 0.90638,-0.3955 1.92811,-0.3955 l 1.35132,0 q 1.02173,0 1.9281,0.3955 0.90637,0.379 1.58203,1.0547 0.67566,0.6756 1.05469,1.582 0.39551,0.9064 0.39551,1.9281 l 0,3.9716 -9.24501,0 0,3.7573 q 0,0.6098 0.23072,1.1536 0.23071,0.5273 0.62622,0.9228 0.39551,0.3955 0.92285,0.6262 0.54383,0.2308 1.15357,0.2308 l 1.35132,0 q 0.60974,0 1.13708,-0.2308 0.54383,-0.2307 0.93934,-0.6262 0.3955,-0.3955 0.62622,-0.9228 0.23071,-0.5438 0.23071,-1.1536 l 0,-1.1206 2.02698,0.3296 0,0.6757 0,0 z m -2.02698,-7.7289 q 0,-0.6098 -0.23071,-1.1371 -0.23072,-0.5439 -0.62622,-0.9394 -0.39551,-0.3955 -0.93934,-0.6262 -0.52734,-0.2307 -1.13708,-0.2307 l -1.35132,0 q -0.60974,0 -1.15357,0.2307 -0.52734,0.2307 -0.92285,0.6262 -0.39551,0.3955 -0.62622,0.9394 -0.23072,0.5273 -0.23072,1.1371 l 0,2.5048 7.21803,0 0,-2.5048 z"
           style="font-style:normal;font-variant:normal;font-weight:normal;font-stretch:normal;font-size:33.75004578px;font-family:Abel;-inkscape-font-specification:Abel;letter-spacing:1.00000131px;fill:#e6e6e6"
           id="path4626" /><path
           d="m 191.7848,-1043.4613 -1.12061,-1.6809 q -0.69214,0.9064 -1.73035,1.4667 -1.03821,0.5438 -2.27417,0.5438 l -0.51086,0 q -1.02173,0 -1.92811,-0.379 -0.90637,-0.3956 -1.58203,-1.0712 -0.67566,-0.6757 -1.07117,-1.582 -0.37903,-0.9064 -0.37903,-1.9281 l 0,-0.1648 q 0,-1.0218 0.37903,-1.9281 0.39551,-0.9064 1.07117,-1.5821 0.67566,-0.6756 1.58203,-1.0547 0.90638,-0.3955 1.92811,-0.3955 l 4.28467,0 0,-2.6037 q 0,-0.6098 -0.23071,-1.1371 -0.23072,-0.5439 -0.62623,-0.9394 -0.3955,-0.3955 -0.93933,-0.6262 -0.52734,-0.2307 -1.13708,-0.2307 l -1.18653,0 q -0.60974,0 -1.15357,0.2307 -0.52734,0.2307 -0.92285,0.6262 -0.39551,0.3955 -0.62622,0.9394 -0.23071,0.5273 -0.23071,1.1371 l 0,0.6097 -2.02698,-0.3296 0,-0.1648 q 0,-1.0217 0.37903,-1.9281 0.3955,-0.9064 1.07116,-1.582 0.67566,-0.6757 1.58204,-1.0547 0.90637,-0.3955 1.9281,-0.3955 l 1.18653,0 q 1.02173,0 1.9281,0.3955 0.90637,0.379 1.58203,1.0547 0.67566,0.6756 1.05469,1.582 0.39551,0.9064 0.39551,1.9281 l 0,12.2443 -0.67566,0 z m -1.35132,-8.1738 -4.28467,0 q -0.60975,0 -1.15357,0.2307 -0.52734,0.2307 -0.92285,0.6427 -0.39551,0.3955 -0.62622,0.9393 -0.23072,0.5273 -0.23072,1.1371 l 0,0.7086 q 0,0.6098 0.23072,1.1536 0.23071,0.5273 0.62622,0.9228 0.39551,0.3955 0.92285,0.6262 0.54382,0.2308 1.15357,0.2308 l 1.35132,0 q 0.60974,0 1.13708,-0.2308 0.54383,-0.2307 0.93933,-0.6262 0.39551,-0.3955 0.62623,-0.9228 0.23071,-0.5438 0.23071,-1.1536 l 0,-3.6584 z"
           style="font-style:normal;font-variant:normal;font-weight:normal;font-stretch:normal;font-size:33.75004578px;font-family:Abel;-inkscape-font-specification:Abel;letter-spacing:1.00000131px;fill:#e6e6e6"
           id="path4628" /><path
           d="m 202.50772,-1058.4082 q -0.60975,0 -1.15357,0.2307 -0.52735,0.2307 -0.92285,0.6262 -0.39551,0.3955 -0.62623,0.9393 -0.23071,0.5274 -0.23071,1.1371 l 0,12.0136 -2.02698,0 0,-16.875 0.67566,0 1.10413,1.7138 q 0.69214,-0.9393 1.73035,-1.4831 1.05469,-0.5603 2.29065,-0.5603 l 1.18653,0 0,2.2577 -2.02698,0 z"
           style="font-style:normal;font-variant:normal;font-weight:normal;font-stretch:normal;font-size:33.75004578px;font-family:Abel;-inkscape-font-specification:Abel;letter-spacing:1.00000131px;fill:#e6e6e6"
           id="path4630" /><path
           d="m 219.50933,-1048.092 q 0,1.0217 -0.39551,1.9281 -0.37903,0.9063 -1.05469,1.582 -0.67566,0.6756 -1.58203,1.0712 -0.90638,0.379 -1.92811,0.379 l -1.35132,0 q -1.02173,0 -1.9281,-0.379 -0.90637,-0.3956 -1.58203,-1.0712 -0.67566,-0.6757 -1.07117,-1.582 -0.37903,-0.9064 -0.37903,-1.9281 l 0,-7.6136 q 0,-1.0217 0.37903,-1.9281 0.39551,-0.9064 1.07117,-1.582 0.67566,-0.6757 1.58203,-1.0547 0.90637,-0.3955 1.9281,-0.3955 l 1.35132,0 q 1.02173,0 1.92811,0.3955 0.90637,0.379 1.58203,1.0547 0.67566,0.6756 1.05469,1.582 0.39551,0.9064 0.39551,1.9281 l 0,3.9716 -9.24501,0 0,3.7573 q 0,0.6098 0.23071,1.1536 0.23071,0.5273 0.62622,0.9228 0.39551,0.3955 0.92286,0.6262 0.54382,0.2308 1.15356,0.2308 l 1.35132,0 q 0.60974,0 1.13709,-0.2308 0.54382,-0.2307 0.93933,-0.6262 0.39551,-0.3955 0.62622,-0.9228 0.23072,-0.5438 0.23072,-1.1536 l 0,-1.1206 2.02698,0.3296 0,0.6757 0,0 z m -2.02698,-7.7289 q 0,-0.6098 -0.23072,-1.1371 -0.23071,-0.5439 -0.62622,-0.9394 -0.39551,-0.3955 -0.93933,-0.6262 -0.52735,-0.2307 -1.13709,-0.2307 l -1.35132,0 q -0.60974,0 -1.15356,0.2307 -0.52735,0.2307 -0.92286,0.6262 -0.39551,0.3955 -0.62622,0.9394 -0.23071,0.5273 -0.23071,1.1371 l 0,2.5048 7.21803,0 0,-2.5048 z"
           style="font-style:normal;font-variant:normal;font-weight:normal;font-stretch:normal;font-size:33.75004578px;font-family:Abel;-inkscape-font-specification:Abel;letter-spacing:1.00000131px;fill:#e6e6e6"
           id="path4632" /><path
           d="m 243.9709,-1043.4613 -1.1206,-1.6809 q -0.69214,0.9064 -1.73035,1.4667 -1.03821,0.5438 -2.27418,0.5438 l -0.51086,0 q -1.02173,0 -1.9281,-0.379 -0.90638,-0.3956 -1.58204,-1.0712 -0.67566,-0.6757 -1.07117,-1.582 -0.37902,-0.9064 -0.37902,-1.9281 l 0,-0.1648 q 0,-1.0218 0.37902,-1.9281 0.39551,-0.9064 1.07117,-1.5821 0.67566,-0.6756 1.58204,-1.0547 0.90637,-0.3955 1.9281,-0.3955 l 4.28467,0 0,-2.6037 q 0,-0.6098 -0.23071,-1.1371 -0.23071,-0.5439 -0.62622,-0.9394 -0.39551,-0.3955 -0.93933,-0.6262 -0.52735,-0.2307 -1.13709,-0.2307 l -1.18653,0 q -0.60974,0 -1.15356,0.2307 -0.52735,0.2307 -0.92285,0.6262 -0.39551,0.3955 -0.62623,0.9394 -0.23071,0.5273 -0.23071,1.1371 l 0,0.6097 -2.02698,-0.3296 0,-0.1648 q 0,-1.0217 0.37903,-1.9281 0.39551,-0.9064 1.07117,-1.582 0.67566,-0.6757 1.58203,-1.0547 0.90637,-0.3955 1.9281,-0.3955 l 1.18653,0 q 1.02173,0 1.9281,0.3955 0.90638,0.379 1.58204,1.0547 0.67566,0.6756 1.05469,1.582 0.3955,0.9064 0.3955,1.9281 l 0,12.2443 -0.67566,0 z m -1.35132,-8.1738 -4.28467,0 q -0.60974,0 -1.15357,0.2307 -0.52734,0.2307 -0.92285,0.6427 -0.39551,0.3955 -0.62622,0.9393 -0.23071,0.5273 -0.23071,1.1371 l 0,0.7086 q 0,0.6098 0.23071,1.1536 0.23071,0.5273 0.62622,0.9228 0.39551,0.3955 0.92285,0.6262 0.54383,0.2308 1.15357,0.2308 l 1.35132,0 q 0.60974,0 1.13709,-0.2308 0.54382,-0.2307 0.93933,-0.6262 0.39551,-0.3955 0.62622,-0.9228 0.23071,-0.5438 0.23071,-1.1536 l 0,-3.6584 z"
           style="font-style:normal;font-variant:normal;font-weight:normal;font-stretch:normal;font-size:33.75004578px;font-family:Abel;-inkscape-font-specification:Abel;letter-spacing:1.00000131px;fill:#e6e6e6"
           id="path4634" /><path
           d="m 269.9486,-1041.3354 q 0,1.0217 -0.39551,1.8786 -0.37903,0.857 -1.05469,1.4667 -0.67566,0.6097 -1.58203,0.9393 -0.90638,0.3461 -1.92811,0.3461 l -0.84045,0 q -1.02173,0 -1.92811,-0.3461 -0.90637,-0.3296 -1.58203,-0.9393 -0.67566,-0.6097 -1.07117,-1.4667 -0.37903,-0.8569 -0.37903,-1.8786 l 0,-0.066 q 0,-0.9887 0.36255,-1.8127 0.36255,-0.824 0.98877,-1.4337 -0.79101,-0.4779 -1.26892,-1.2854 -0.46143,-0.824 -0.46143,-1.8128 0,-0.8899 0.37903,-1.6479 0.37903,-0.7746 1.03821,-1.2525 -0.79101,-0.6921 -1.25244,-1.6644 -0.46143,-0.9723 -0.46143,-2.1259 l 0,-1.2689 q 0,-1.0217 0.37903,-1.9281 0.39551,-0.9064 1.07117,-1.582 0.67566,-0.6757 1.58203,-1.0547 0.90638,-0.3955 1.92811,-0.3955 l 0.84045,0 q 1.23597,0 2.27418,0.5603 1.05468,0.5438 1.74682,1.4831 l 1.10413,-1.7138 0.67566,0 0,5.8996 q 0,1.0218 -0.39551,1.9281 -0.37903,0.9064 -1.05469,1.5821 -0.67566,0.6756 -1.58203,1.0711 -0.90637,0.3791 -1.9281,0.3791 l -2.93336,0 q -0.34607,0 -0.65918,0.1483 -0.31311,0.1318 -0.5603,0.3625 -0.23071,0.2308 -0.36255,0.5603 -0.13184,0.3132 -0.13184,0.6592 0,0.3461 0.13184,0.6592 0.13184,0.3131 0.36255,0.5603 0.24719,0.2307 0.5603,0.3626 0.31311,0.1318 0.65918,0.1318 l 2.76856,0 q 1.02173,0 1.92811,0.3461 0.90637,0.3296 1.58203,0.9393 0.67566,0.6097 1.05469,1.4667 0.39551,0.8569 0.39551,1.8786 l 0,0.066 0,0 z m -1.84571,-14.4855 q 0,-0.6098 -0.23071,-1.1371 -0.23072,-0.5439 -0.6427,-0.9394 -0.39551,-0.3955 -0.93934,-0.6262 -0.52734,-0.2307 -1.13708,-0.2307 l -1.68091,0 q -0.60975,0 -1.15357,0.2307 -0.52734,0.2307 -0.92285,0.6262 -0.39551,0.3955 -0.62622,0.9394 -0.23072,0.5273 -0.23072,1.1371 l 0,1.4996 q 0,0.6097 0.23072,1.1536 0.23071,0.5273 0.62622,0.9228 0.39551,0.3955 0.92285,0.6262 0.54382,0.2307 1.15357,0.2307 l 1.68091,0 q 0.60974,0 1.13708,-0.2307 0.54383,-0.2307 0.93934,-0.6262 0.41198,-0.3955 0.6427,-0.9228 0.23071,-0.5439 0.23071,-1.1536 l 0,-1.4996 z m -0.0824,14.3207 q 0,-0.6098 -0.23071,-1.1042 -0.23071,-0.4779 -0.62622,-0.8075 -0.39551,-0.3296 -0.93933,-0.5108 -0.52735,-0.1813 -1.13709,-0.1813 l -1.03821,0 q -0.60974,0 -1.15357,0.1813 -0.52734,0.1812 -0.92285,0.5108 -0.39551,0.3296 -0.62622,0.8075 -0.23071,0.4944 -0.23071,1.1042 l 0,0.2636 q 0,0.6098 0.23071,1.0877 0.23071,0.4779 0.62622,0.8075 0.39551,0.346 0.92285,0.5273 0.54383,0.1813 1.15357,0.1813 l 1.03821,0 q 0.60974,0 1.13709,-0.1813 0.54382,-0.1813 0.93933,-0.5273 0.39551,-0.3296 0.62622,-0.8075 0.23071,-0.4779 0.23071,-1.0877 l 0,-0.2636 z"
           style="font-style:normal;font-variant:normal;font-weight:normal;font-stretch:normal;font-size:33.75004578px;font-family:Abel;-inkscape-font-specification:Abel;letter-spacing:1.00000131px;fill:#e6e6e6"
           id="path4636" /><path
           d="m 279.83106,-1058.4082 q -0.60974,0 -1.15356,0.2307 -0.52735,0.2307 -0.92285,0.6262 -0.39551,0.3955 -0.62623,0.9393 -0.23071,0.5274 -0.23071,1.1371 l 0,12.0136 -2.02698,0 0,-16.875 0.67566,0 1.10413,1.7138 q 0.69214,-0.9393 1.73035,-1.4831 1.05469,-0.5603 2.29065,-0.5603 l 1.18652,0 0,2.2577 -2.02698,0 z"
           style="font-style:normal;font-variant:normal;font-weight:normal;font-stretch:normal;font-size:33.75004578px;font-family:Abel;-inkscape-font-specification:Abel;letter-spacing:1.00000131px;fill:#e6e6e6"
           id="path4638" /><path
           d="m 296.83267,-1048.092 q 0,1.0217 -0.3955,1.9281 -0.37903,0.9063 -1.05469,1.582 -0.67566,0.6756 -1.58204,1.0712 -0.90637,0.379 -1.9281,0.379 l -1.35132,0 q -1.02173,0 -1.9281,-0.379 -0.90638,-0.3956 -1.58204,-1.0712 -0.67566,-0.6757 -1.07116,-1.582 -0.37903,-0.9064 -0.37903,-1.9281 l 0,-7.6136 q 0,-1.0217 0.37903,-1.9281 0.3955,-0.9064 1.07116,-1.582 0.67566,-0.6757 1.58204,-1.0547 0.90637,-0.3955 1.9281,-0.3955 l 1.35132,0 q 1.02173,0 1.9281,0.3955 0.90638,0.379 1.58204,1.0547 0.67566,0.6756 1.05469,1.582 0.3955,0.9064 0.3955,1.9281 l 0,7.6136 0,0 z m -2.02698,-7.7289 q 0,-0.6098 -0.23071,-1.1371 -0.23071,-0.5439 -0.62622,-0.9394 -0.39551,-0.3955 -0.93933,-0.6262 -0.52735,-0.2307 -1.13709,-0.2307 l -1.35132,0 q -0.60974,0 -1.15357,0.2307 -0.52734,0.2307 -0.92285,0.6262 -0.39551,0.3955 -0.62622,0.9394 -0.23071,0.5273 -0.23071,1.1371 l 0,7.8442 q 0,0.6098 0.23071,1.1536 0.23071,0.5273 0.62622,0.9228 0.39551,0.3955 0.92285,0.6262 0.54383,0.2308 1.15357,0.2308 l 1.35132,0 q 0.60974,0 1.13709,-0.2308 0.54382,-0.2307 0.93933,-0.6262 0.39551,-0.3955 0.62622,-0.9228 0.23071,-0.5438 0.23071,-1.1536 l 0,-7.8442 z"
           style="font-style:normal;font-variant:normal;font-weight:normal;font-stretch:normal;font-size:33.75004578px;font-family:Abel;-inkscape-font-specification:Abel;letter-spacing:1.00000131px;fill:#e6e6e6"
           id="path4640" /><path
           d="m 312.51592,-1043.4613 -1.12061,-1.7139 q -0.69214,0.9394 -1.73035,1.4997 -1.03821,0.5438 -2.27417,0.5438 l -0.51087,0 q -1.02173,0 -1.9281,-0.379 -0.90637,-0.3956 -1.58203,-1.0712 -0.67566,-0.6757 -1.07117,-1.582 -0.37903,-0.9064 -0.37903,-1.9281 l 0,-12.2443 2.02698,0 0,12.3596 q 0,0.6098 0.23071,1.1536 0.23072,0.5273 0.62622,0.9228 0.39551,0.3955 0.92286,0.6262 0.54382,0.2308 1.15356,0.2308 l 1.35132,0 q 0.60975,0 1.13709,-0.2308 0.54382,-0.2307 0.93933,-0.6262 0.39551,-0.3955 0.62622,-0.9228 0.23072,-0.5438 0.23072,-1.1536 l 0,-12.3596 2.02698,0 0,16.875 -0.67566,0 z"
           style="font-style:normal;font-variant:normal;font-weight:normal;font-stretch:normal;font-size:33.75004578px;font-family:Abel;-inkscape-font-specification:Abel;letter-spacing:1.00000131px;fill:#e6e6e6"
           id="path4642" /><path
           d="m 329.55049,-1048.092 q 0,1.0217 -0.3955,1.9281 -0.37903,0.9063 -1.05469,1.582 -0.67566,0.6756 -1.58204,1.0712 -0.90637,0.379 -1.9281,0.379 l -0.51086,0 q -1.13709,0 -2.10938,-0.4614 -0.97229,-0.4615 -1.66443,-1.2854 l 0,8.1738 -2.02698,0 0,-23.6316 0.67566,0 1.10412,1.7138 q 0.69214,-0.9393 1.73035,-1.4831 1.05469,-0.5603 2.29066,-0.5603 l 0.51086,0 q 1.02173,0 1.9281,0.3955 0.90638,0.379 1.58204,1.0547 0.67566,0.6756 1.05469,1.582 0.3955,0.9064 0.3955,1.9281 l 0,7.6136 0,0 z m -2.02698,-7.7289 q 0,-0.6098 -0.23071,-1.1371 -0.23071,-0.5439 -0.62622,-0.9394 -0.39551,-0.3955 -0.93933,-0.6262 -0.52735,-0.2307 -1.13709,-0.2307 l -1.35132,0 q -0.60974,0 -1.15357,0.2307 -0.52734,0.2307 -0.92285,0.6262 -0.39551,0.3955 -0.62622,0.9394 -0.23071,0.5273 -0.23071,1.1371 l 0,7.8442 q 0,0.6098 0.23071,1.1536 0.23071,0.5273 0.62622,0.9228 0.39551,0.3955 0.92285,0.6262 0.54383,0.2308 1.15357,0.2308 l 1.35132,0 q 0.60974,0 1.13709,-0.2308 0.54382,-0.2307 0.93933,-0.6262 0.39551,-0.3955 0.62622,-0.9228 0.23071,-0.5438 0.23071,-1.1536 l 0,-7.8442 z"
           style="font-style:normal;font-variant:normal;font-weight:normal;font-stretch:normal;font-size:33.75004578px;font-family:Abel;-inkscape-font-specification:Abel;letter-spacing:1.00000131px;fill:#e6e6e6"
           id="path4644" /><path
           d="m 354.68773,-1048.092 q 0,1.0217 -0.39551,1.9281 -0.37903,0.9063 -1.05469,1.582 -0.67566,0.6756 -1.58203,1.0712 -0.90637,0.379 -1.9281,0.379 l -1.35132,0 q -1.02173,0 -1.92811,-0.379 -0.90637,-0.3956 -1.58203,-1.0712 -0.67566,-0.6757 -1.07117,-1.582 -0.37903,-0.9064 -0.37903,-1.9281 l 0,-7.6136 q 0,-1.0217 0.37903,-1.9281 0.39551,-0.9064 1.07117,-1.582 0.67566,-0.6757 1.58203,-1.0547 0.90638,-0.3955 1.92811,-0.3955 l 1.35132,0 q 1.02173,0 1.9281,0.3955 0.90637,0.379 1.58203,1.0547 0.67566,0.6756 1.05469,1.582 0.39551,0.9064 0.39551,1.9281 l 0,7.6136 0,0 z m -2.02698,-7.7289 q 0,-0.6098 -0.23071,-1.1371 -0.23072,-0.5439 -0.62622,-0.9394 -0.39551,-0.3955 -0.93934,-0.6262 -0.52734,-0.2307 -1.13708,-0.2307 l -1.35132,0 q -0.60974,0 -1.15357,0.2307 -0.52734,0.2307 -0.92285,0.6262 -0.39551,0.3955 -0.62622,0.9394 -0.23072,0.5273 -0.23072,1.1371 l 0,7.8442 q 0,0.6098 0.23072,1.1536 0.23071,0.5273 0.62622,0.9228 0.39551,0.3955 0.92285,0.6262 0.54383,0.2308 1.15357,0.2308 l 1.35132,0 q 0.60974,0 1.13708,-0.2308 0.54383,-0.2307 0.93934,-0.6262 0.3955,-0.3955 0.62622,-0.9228 0.23071,-0.5438 0.23071,-1.1536 l 0,-7.8442 z"
           style="font-style:normal;font-variant:normal;font-weight:normal;font-stretch:normal;font-size:33.75004578px;font-family:Abel;-inkscape-font-specification:Abel;letter-spacing:1.00000131px;fill:#e6e6e6"
           id="path4646" /><path
           d="m 365.57543,-1065.1648 q -0.51086,0 -0.95581,0.1977 -0.42846,0.1813 -0.75805,0.5109 -0.32959,0.3296 -0.52735,0.7745 -0.18127,0.445 -0.18127,0.9558 l 0,2.3896 3.9386,0 0,1.9281 -3.9386,0 0,14.9469 -2.02698,0 0,-14.9469 -3.04871,0 0,-1.9281 3.04871,0 0,-2.2907 q 0,-0.9228 0.34607,-1.7303 0.34607,-0.824 0.95581,-1.4337 0.60974,-0.6098 1.41724,-0.9559 0.80749,-0.346 1.73034,-0.346 l 1.86219,0 0,1.9281 -1.86219,0 z"
           style="font-style:normal;font-variant:normal;font-weight:normal;font-stretch:normal;font-size:33.75004578px;font-family:Abel;-inkscape-font-specification:Abel;letter-spacing:1.00000131px;fill:#e6e6e6"
           id="path4648" /><path
           d="m 393.44828,-1043.4613 -1.10413,0 -3.95508,-12.7222 -0.0659,-0.8734 -0.0659,0.8734 -3.95508,12.7222 -1.12061,0 -5.63599,-16.875 2.05994,0 4.021,12.7551 0.0659,0.8734 0.0659,-0.8734 3.95509,-12.7551 1.21948,0 3.93861,12.7551 0.0659,0.8734 0.0659,-0.8734 4.021,-12.7551 2.05994,0 -5.63599,16.875 z"
           style="font-style:normal;font-variant:normal;font-weight:normal;font-stretch:normal;font-size:33.75004578px;font-family:Abel;-inkscape-font-specification:Abel;letter-spacing:1.00000131px;fill:#e6e6e6"
           id="path4650" /><path
           d="m 413.72931,-1048.092 q 0,1.0217 -0.39551,1.9281 -0.37903,0.9063 -1.05469,1.582 -0.67566,0.6756 -1.58203,1.0712 -0.90637,0.379 -1.9281,0.379 l -1.35132,0 q -1.02173,0 -1.92811,-0.379 -0.90637,-0.3956 -1.58203,-1.0712 -0.67566,-0.6757 -1.07117,-1.582 -0.37903,-0.9064 -0.37903,-1.9281 l 0,-7.6136 q 0,-1.0217 0.37903,-1.9281 0.39551,-0.9064 1.07117,-1.582 0.67566,-0.6757 1.58203,-1.0547 0.90638,-0.3955 1.92811,-0.3955 l 1.35132,0 q 1.02173,0 1.9281,0.3955 0.90637,0.379 1.58203,1.0547 0.67566,0.6756 1.05469,1.582 0.39551,0.9064 0.39551,1.9281 l 0,3.9716 -9.24501,0 0,3.7573 q 0,0.6098 0.23072,1.1536 0.23071,0.5273 0.62622,0.9228 0.39551,0.3955 0.92285,0.6262 0.54383,0.2308 1.15357,0.2308 l 1.35132,0 q 0.60974,0 1.13708,-0.2308 0.54383,-0.2307 0.93934,-0.6262 0.39551,-0.3955 0.62622,-0.9228 0.23071,-0.5438 0.23071,-1.1536 l 0,-1.1206 2.02698,0.3296 0,0.6757 0,0 z m -2.02698,-7.7289 q 0,-0.6098 -0.23071,-1.1371 -0.23071,-0.5439 -0.62622,-0.9394 -0.39551,-0.3955 -0.93934,-0.6262 -0.52734,-0.2307 -1.13708,-0.2307 l -1.35132,0 q -0.60974,0 -1.15357,0.2307 -0.52734,0.2307 -0.92285,0.6262 -0.39551,0.3955 -0.62622,0.9394 -0.23072,0.5273 -0.23072,1.1371 l 0,2.5048 7.21803,0 0,-2.5048 z"
           style="font-style:normal;font-variant:normal;font-weight:normal;font-stretch:normal;font-size:33.75004578px;font-family:Abel;-inkscape-font-specification:Abel;letter-spacing:1.00000131px;fill:#e6e6e6"
           id="path4652" /><path
           d="m 430.08823,-1048.092 q 0,1.0217 -0.39551,1.9281 -0.37903,0.9063 -1.05469,1.582 -0.67566,0.6756 -1.58203,1.0712 -0.90637,0.379 -1.9281,0.379 l -1.35132,0 q -1.02173,0 -1.92811,-0.379 -0.90637,-0.3956 -1.58203,-1.0712 -0.67566,-0.6757 -1.07117,-1.582 -0.37903,-0.9064 -0.37903,-1.9281 l 0,-19.0009 2.02698,0 0,8.1738 q 0.69214,-0.824 1.66443,-1.2854 0.97229,-0.4614 2.10938,-0.4614 l 0.51087,0 q 1.02173,0 1.9281,0.3955 0.90637,0.379 1.58203,1.0547 0.67566,0.6756 1.05469,1.582 0.39551,0.9064 0.39551,1.9281 l 0,7.6136 0,0 z m -2.02698,-7.7289 q 0,-0.6098 -0.23071,-1.1371 -0.23072,-0.5439 -0.62623,-0.9394 -0.3955,-0.3955 -0.93933,-0.6262 -0.52734,-0.2307 -1.13708,-0.2307 l -1.35132,0 q -0.60975,0 -1.15357,0.2307 -0.52735,0.2307 -0.92285,0.6262 -0.39551,0.3955 -0.62623,0.9394 -0.23071,0.5273 -0.23071,1.1371 l 0,7.8442 q 0,0.6098 0.23071,1.1536 0.23072,0.5273 0.62623,0.9228 0.3955,0.3955 0.92285,0.6262 0.54382,0.2308 1.15357,0.2308 l 1.35132,0 q 0.60974,0 1.13708,-0.2308 0.54383,-0.2307 0.93933,-0.6262 0.39551,-0.3955 0.62623,-0.9228 0.23071,-0.5438 0.23071,-1.1536 l 0,-7.8442 z"
           style="font-style:normal;font-variant:normal;font-weight:normal;font-stretch:normal;font-size:33.75004578px;font-family:Abel;-inkscape-font-specification:Abel;letter-spacing:1.00000131px;fill:#e6e6e6"
           id="path4654" /><path
           d="m 454.54981,-1043.4613 -1.12061,-1.6809 q -0.69214,0.9064 -1.73035,1.4667 -1.03821,0.5438 -2.27417,0.5438 l -0.51087,0 q -1.02173,0 -1.9281,-0.379 -0.90637,-0.3956 -1.58203,-1.0712 -0.67566,-0.6757 -1.07117,-1.582 -0.37903,-0.9064 -0.37903,-1.9281 l 0,-0.1648 q 0,-1.0218 0.37903,-1.9281 0.39551,-0.9064 1.07117,-1.5821 0.67566,-0.6756 1.58203,-1.0547 0.90637,-0.3955 1.9281,-0.3955 l 4.28468,0 0,-2.6037 q 0,-0.6098 -0.23072,-1.1371 -0.23071,-0.5439 -0.62622,-0.9394 -0.39551,-0.3955 -0.93933,-0.6262 -0.52735,-0.2307 -1.13709,-0.2307 l -1.18652,0 q -0.60974,0 -1.15357,0.2307 -0.52734,0.2307 -0.92285,0.6262 -0.39551,0.3955 -0.62622,0.9394 -0.23072,0.5273 -0.23072,1.1371 l 0,0.6097 -2.02698,-0.3296 0,-0.1648 q 0,-1.0217 0.37903,-1.9281 0.39551,-0.9064 1.07117,-1.582 0.67566,-0.6757 1.58203,-1.0547 0.90638,-0.3955 1.92811,-0.3955 l 1.18652,0 q 1.02173,0 1.92811,0.3955 0.90637,0.379 1.58203,1.0547 0.67566,0.6756 1.05469,1.582 0.39551,0.9064 0.39551,1.9281 l 0,12.2443 -0.67566,0 z m -1.35132,-8.1738 -4.28468,0 q -0.60974,0 -1.15356,0.2307 -0.52735,0.2307 -0.92286,0.6427 -0.3955,0.3955 -0.62622,0.9393 -0.23071,0.5273 -0.23071,1.1371 l 0,0.7086 q 0,0.6098 0.23071,1.1536 0.23072,0.5273 0.62622,0.9228 0.39551,0.3955 0.92286,0.6262 0.54382,0.2308 1.15356,0.2308 l 1.35132,0 q 0.60974,0 1.13709,-0.2308 0.54382,-0.2307 0.93933,-0.6262 0.39551,-0.3955 0.62622,-0.9228 0.23072,-0.5438 0.23072,-1.1536 l 0,-3.6584 z"
           style="font-style:normal;font-variant:normal;font-weight:normal;font-stretch:normal;font-size:33.75004578px;font-family:Abel;-inkscape-font-specification:Abel;letter-spacing:1.00000131px;fill:#e6e6e6"
           id="path4656" /><path
           d="m 469.5574,-1043.4613 0,-12.3596 q 0,-0.6098 -0.23071,-1.1371 -0.23071,-0.5439 -0.62622,-0.9394 -0.39551,-0.3955 -0.93933,-0.6262 -0.52735,-0.2307 -1.13709,-0.2307 l -1.35132,0 q -0.60974,0 -1.15357,0.2307 -0.52734,0.2307 -0.92285,0.6262 -0.39551,0.3955 -0.62622,0.9394 -0.23071,0.5273 -0.23071,1.1371 l 0,12.3596 -2.02698,0 0,-16.875 0.67566,0 1.10412,1.7138 q 0.69214,-0.9393 1.73035,-1.4831 1.05469,-0.5603 2.29066,-0.5603 l 0.51086,0 q 1.02173,0 1.9281,0.3955 0.90638,0.379 1.58204,1.0547 0.67566,0.6756 1.05469,1.582 0.3955,0.9064 0.3955,1.9281 l 0,12.2443 -2.02698,0 z"
           style="font-style:normal;font-variant:normal;font-weight:normal;font-stretch:normal;font-size:33.75004578px;font-family:Abel;-inkscape-font-specification:Abel;letter-spacing:1.00000131px;fill:#e6e6e6"
           id="path4658" /><path
           d="m 487.26761,-1043.4613 -1.12061,-1.7139 q -0.69214,0.9394 -1.73035,1.4997 -1.0382,0.5438 -2.27417,0.5438 l -0.51086,0 q -1.02173,0 -1.92811,-0.379 -0.90637,-0.3956 -1.58203,-1.0712 -0.67566,-0.6757 -1.07117,-1.582 -0.37903,-0.9064 -0.37903,-1.9281 l 0,-7.6136 q 0,-1.0217 0.37903,-1.9281 0.39551,-0.9064 1.07117,-1.582 0.67566,-0.6757 1.58203,-1.0547 0.90638,-0.3955 1.92811,-0.3955 l 0.51086,0 q 1.13709,0 2.10938,0.4614 0.97229,0.4614 1.66443,1.2854 l 0,-8.1738 2.02698,0 0,23.6316 -0.67566,0 z m -1.35132,-12.3596 q 0,-0.6098 -0.23071,-1.1371 -0.23072,-0.5439 -0.62622,-0.9394 -0.39551,-0.3955 -0.93934,-0.6262 -0.52734,-0.2307 -1.13708,-0.2307 l -1.35132,0 q -0.60975,0 -1.15357,0.2307 -0.52734,0.2307 -0.92285,0.6262 -0.39551,0.3955 -0.62622,0.9394 -0.23072,0.5273 -0.23072,1.1371 l 0,7.8442 q 0,0.6098 0.23072,1.1536 0.23071,0.5273 0.62622,0.9228 0.39551,0.3955 0.92285,0.6262 0.54382,0.2308 1.15357,0.2308 l 1.35132,0 q 0.60974,0 1.13708,-0.2308 0.54383,-0.2307 0.93934,-0.6262 0.3955,-0.3955 0.62622,-0.9228 0.23071,-0.5438 0.23071,-1.1536 l 0,-7.8442 z"
           style="font-style:normal;font-variant:normal;font-weight:normal;font-stretch:normal;font-size:33.75004578px;font-family:Abel;-inkscape-font-specification:Abel;letter-spacing:1.00000131px;fill:#e6e6e6"
           id="path4660" /><path
           d="m 513.24533,-1041.3354 q 0,1.0217 -0.3955,1.8786 -0.37903,0.857 -1.05469,1.4667 -0.67566,0.6097 -1.58204,0.9393 -0.90637,0.3461 -1.9281,0.3461 l -0.84046,0 q -1.02173,0 -1.9281,-0.3461 -0.90637,-0.3296 -1.58203,-0.9393 -0.67566,-0.6097 -1.07117,-1.4667 -0.37903,-0.8569 -0.37903,-1.8786 l 0,-0.066 q 0,-0.9887 0.36255,-1.8127 0.36255,-0.824 0.98877,-1.4337 -0.79102,-0.4779 -1.26892,-1.2854 -0.46143,-0.824 -0.46143,-1.8128 0,-0.8899 0.37903,-1.6479 0.37903,-0.7746 1.03821,-1.2525 -0.79102,-0.6921 -1.25244,-1.6644 -0.46143,-0.9723 -0.46143,-2.1259 l 0,-1.2689 q 0,-1.0217 0.37903,-1.9281 0.39551,-0.9064 1.07117,-1.582 0.67566,-0.6757 1.58203,-1.0547 0.90637,-0.3955 1.9281,-0.3955 l 0.84046,0 q 1.23596,0 2.27417,0.5603 1.05469,0.5438 1.74683,1.4831 l 1.10413,-1.7138 0.67566,0 0,5.8996 q 0,1.0218 -0.39551,1.9281 -0.37903,0.9064 -1.05469,1.5821 -0.67566,0.6756 -1.58203,1.0711 -0.90638,0.3791 -1.9281,0.3791 l -2.93336,0 q -0.34607,0 -0.65918,0.1483 -0.31311,0.1318 -0.5603,0.3625 -0.23072,0.2308 -0.36255,0.5603 -0.13184,0.3132 -0.13184,0.6592 0,0.3461 0.13184,0.6592 0.13183,0.3131 0.36255,0.5603 0.24719,0.2307 0.5603,0.3626 0.31311,0.1318 0.65918,0.1318 l 2.76856,0 q 1.02173,0 1.9281,0.3461 0.90638,0.3296 1.58204,0.9393 0.67566,0.6097 1.05469,1.4667 0.3955,0.8569 0.3955,1.8786 l 0,0.066 0,0 z m -1.8457,-14.4855 q 0,-0.6098 -0.23072,-1.1371 -0.23071,-0.5439 -0.6427,-0.9394 -0.3955,-0.3955 -0.93933,-0.6262 -0.52734,-0.2307 -1.13708,-0.2307 l -1.68092,0 q -0.60974,0 -1.15356,0.2307 -0.52735,0.2307 -0.92285,0.6262 -0.39551,0.3955 -0.62623,0.9394 -0.23071,0.5273 -0.23071,1.1371 l 0,1.4996 q 0,0.6097 0.23071,1.1536 0.23072,0.5273 0.62623,0.9228 0.3955,0.3955 0.92285,0.6262 0.54382,0.2307 1.15356,0.2307 l 1.68092,0 q 0.60974,0 1.13708,-0.2307 0.54383,-0.2307 0.93933,-0.6262 0.41199,-0.3955 0.6427,-0.9228 0.23072,-0.5439 0.23072,-1.1536 l 0,-1.4996 z m -0.0824,14.3207 q 0,-0.6098 -0.23071,-1.1042 -0.23072,-0.4779 -0.62622,-0.8075 -0.39551,-0.3296 -0.93934,-0.5108 -0.52734,-0.1813 -1.13708,-0.1813 l -1.03821,0 q -0.60974,0 -1.15357,0.1813 -0.52734,0.1812 -0.92285,0.5108 -0.39551,0.3296 -0.62622,0.8075 -0.23072,0.4944 -0.23072,1.1042 l 0,0.2636 q 0,0.6098 0.23072,1.0877 0.23071,0.4779 0.62622,0.8075 0.39551,0.346 0.92285,0.5273 0.54383,0.1813 1.15357,0.1813 l 1.03821,0 q 0.60974,0 1.13708,-0.1813 0.54383,-0.1813 0.93934,-0.5273 0.3955,-0.3296 0.62622,-0.8075 0.23071,-0.4779 0.23071,-1.0877 l 0,-0.2636 z"
           style="font-style:normal;font-variant:normal;font-weight:normal;font-stretch:normal;font-size:33.75004578px;font-family:Abel;-inkscape-font-specification:Abel;letter-spacing:1.00000131px;fill:#e6e6e6"
           id="path4662" /><path
           d="m 523.12777,-1058.4082 q -0.60974,0 -1.15356,0.2307 -0.52735,0.2307 -0.92286,0.6262 -0.39551,0.3955 -0.62622,0.9393 -0.23071,0.5274 -0.23071,1.1371 l 0,12.0136 -2.02698,0 0,-16.875 0.67566,0 1.10413,1.7138 q 0.69213,-0.9393 1.73034,-1.4831 1.05469,-0.5603 2.29066,-0.5603 l 1.18652,0 0,2.2577 -2.02698,0 z"
           style="font-style:normal;font-variant:normal;font-weight:normal;font-stretch:normal;font-size:33.75004578px;font-family:Abel;-inkscape-font-specification:Abel;letter-spacing:1.00000131px;fill:#e6e6e6"
           id="path4664" /><path
           d="m 539.45374,-1043.4613 -1.12061,-1.6809 q -0.69214,0.9064 -1.73035,1.4667 -1.03821,0.5438 -2.27417,0.5438 l -0.51087,0 q -1.02173,0 -1.9281,-0.379 -0.90637,-0.3956 -1.58203,-1.0712 -0.67566,-0.6757 -1.07117,-1.582 -0.37903,-0.9064 -0.37903,-1.9281 l 0,-0.1648 q 0,-1.0218 0.37903,-1.9281 0.39551,-0.9064 1.07117,-1.5821 0.67566,-0.6756 1.58203,-1.0547 0.90637,-0.3955 1.9281,-0.3955 l 4.28468,0 0,-2.6037 q 0,-0.6098 -0.23072,-1.1371 -0.23071,-0.5439 -0.62622,-0.9394 -0.39551,-0.3955 -0.93933,-0.6262 -0.52734,-0.2307 -1.13709,-0.2307 l -1.18652,0 q -0.60974,0 -1.15357,0.2307 -0.52734,0.2307 -0.92285,0.6262 -0.39551,0.3955 -0.62622,0.9394 -0.23072,0.5273 -0.23072,1.1371 l 0,0.6097 -2.02698,-0.3296 0,-0.1648 q 0,-1.0217 0.37903,-1.9281 0.39551,-0.9064 1.07117,-1.582 0.67566,-0.6757 1.58204,-1.0547 0.90637,-0.3955 1.9281,-0.3955 l 1.18652,0 q 1.02173,0 1.92811,0.3955 0.90637,0.379 1.58203,1.0547 0.67566,0.6756 1.05469,1.582 0.39551,0.9064 0.39551,1.9281 l 0,12.2443 -0.67566,0 z m -1.35132,-8.1738 -4.28468,0 q -0.60974,0 -1.15356,0.2307 -0.52735,0.2307 -0.92286,0.6427 -0.3955,0.3955 -0.62622,0.9393 -0.23071,0.5273 -0.23071,1.1371 l 0,0.7086 q 0,0.6098 0.23071,1.1536 0.23072,0.5273 0.62622,0.9228 0.39551,0.3955 0.92286,0.6262 0.54382,0.2308 1.15356,0.2308 l 1.35132,0 q 0.60975,0 1.13709,-0.2308 0.54382,-0.2307 0.93933,-0.6262 0.39551,-0.3955 0.62622,-0.9228 0.23072,-0.5438 0.23072,-1.1536 l 0,-3.6584 z"
           style="font-style:normal;font-variant:normal;font-weight:normal;font-stretch:normal;font-size:33.75004578px;font-family:Abel;-inkscape-font-specification:Abel;letter-spacing:1.00000131px;fill:#e6e6e6"
           id="path4666" /><path
           d="m 556.48831,-1048.092 q 0,1.0217 -0.3955,1.9281 -0.37903,0.9063 -1.05469,1.582 -0.67566,0.6756 -1.58204,1.0712 -0.90637,0.379 -1.9281,0.379 l -0.51086,0 q -1.13709,0 -2.10938,-0.4614 -0.97229,-0.4615 -1.66443,-1.2854 l 0,8.1738 -2.02698,0 0,-23.6316 0.67566,0 1.10412,1.7138 q 0.69214,-0.9393 1.73035,-1.4831 1.05469,-0.5603 2.29066,-0.5603 l 0.51086,0 q 1.02173,0 1.9281,0.3955 0.90638,0.379 1.58204,1.0547 0.67566,0.6756 1.05469,1.582 0.3955,0.9064 0.3955,1.9281 l 0,7.6136 0,0 z m -2.02698,-7.7289 q 0,-0.6098 -0.23071,-1.1371 -0.23071,-0.5439 -0.62622,-0.9394 -0.39551,-0.3955 -0.93933,-0.6262 -0.52735,-0.2307 -1.13709,-0.2307 l -1.35132,0 q -0.60974,0 -1.15357,0.2307 -0.52734,0.2307 -0.92285,0.6262 -0.39551,0.3955 -0.62622,0.9394 -0.23071,0.5273 -0.23071,1.1371 l 0,7.8442 q 0,0.6098 0.23071,1.1536 0.23071,0.5273 0.62622,0.9228 0.39551,0.3955 0.92285,0.6262 0.54383,0.2308 1.15357,0.2308 l 1.35132,0 q 0.60974,0 1.13709,-0.2308 0.54382,-0.2307 0.93933,-0.6262 0.39551,-0.3955 0.62622,-0.9228 0.23071,-0.5438 0.23071,-1.1536 l 0,-7.8442 z"
           style="font-style:normal;font-variant:normal;font-weight:normal;font-stretch:normal;font-size:33.75004578px;font-family:Abel;-inkscape-font-specification:Abel;letter-spacing:1.00000131px;fill:#e6e6e6"
           id="path4668" /><path
           d="m 570.82022,-1043.4613 0,-12.3596 q 0,-0.6098 -0.23071,-1.1371 -0.23072,-0.5439 -0.62622,-0.9394 -0.39551,-0.3955 -0.93934,-0.6262 -0.52734,-0.2307 -1.13708,-0.2307 l -1.35132,0 q -0.60974,0 -1.15357,0.2307 -0.52734,0.2307 -0.92285,0.6262 -0.39551,0.3955 -0.62622,0.9394 -0.23072,0.5273 -0.23072,1.1371 l 0,12.3596 -2.02698,0 0,-23.6316 2.02698,0 0,8.1738 q 0.69214,-0.824 1.66443,-1.2854 0.9723,-0.4614 2.10938,-0.4614 l 0.51087,0 q 1.02173,0 1.9281,0.3955 0.90637,0.379 1.58203,1.0547 0.67566,0.6756 1.05469,1.582 0.39551,0.9064 0.39551,1.9281 l 0,12.2443 -2.02698,0 z"
           style="font-style:normal;font-variant:normal;font-weight:normal;font-stretch:normal;font-size:33.75004578px;font-family:Abel;-inkscape-font-specification:Abel;letter-spacing:1.00000131px;fill:#e6e6e6"
           id="path4670" /><path
           d="m 578.445,-1064.3903 0,-2.7026 2.35657,0 0,2.7026 -2.35657,0 z m 0.16479,20.929 0,-16.875 2.02698,0 0,16.875 -2.02698,0 z"
           style="font-style:normal;font-variant:normal;font-weight:normal;font-stretch:normal;font-size:33.75004578px;font-family:Abel;-inkscape-font-specification:Abel;letter-spacing:1.00000131px;fill:#e6e6e6"
           id="path4672" /><path
           d="m 597.65485,-1048.092 q 0,1.0217 -0.39551,1.9281 -0.37903,0.9063 -1.05469,1.582 -0.67566,0.6756 -1.58203,1.0712 -0.90638,0.379 -1.9281,0.379 l -1.35133,0 q -1.02172,0 -1.9281,-0.379 -0.90637,-0.3956 -1.58203,-1.0712 -0.67566,-0.6757 -1.07117,-1.582 -0.37903,-0.9064 -0.37903,-1.9281 l 0,-7.6136 q 0,-1.0217 0.37903,-1.9281 0.39551,-0.9064 1.07117,-1.582 0.67566,-0.6757 1.58203,-1.0547 0.90638,-0.3955 1.9281,-0.3955 l 1.35133,0 q 1.02172,0 1.9281,0.3955 0.90637,0.379 1.58203,1.0547 0.67566,0.6756 1.05469,1.582 0.39551,0.9064 0.39551,1.9281 l 0,0.6757 -2.02698,0.3296 0,-1.1206 q 0,-0.6098 -0.23071,-1.1371 -0.23072,-0.5439 -0.62623,-0.9394 -0.3955,-0.3955 -0.93933,-0.6262 -0.52734,-0.2307 -1.13708,-0.2307 l -1.35133,0 q -0.60974,0 -1.15356,0.2307 -0.52735,0.2307 -0.92285,0.6262 -0.39551,0.3955 -0.62623,0.9394 -0.23071,0.5273 -0.23071,1.1371 l 0,7.8442 q 0,0.6098 0.23071,1.1536 0.23072,0.5273 0.62623,0.9228 0.3955,0.3955 0.92285,0.6262 0.54382,0.2308 1.15356,0.2308 l 1.35133,0 q 0.60974,0 1.13708,-0.2308 0.54383,-0.2307 0.93933,-0.6262 0.39551,-0.3955 0.62623,-0.9228 0.23071,-0.5438 0.23071,-1.1536 l 0,-1.1206 2.02698,0.3296 0,0.6757 0,0 z"
           style="font-style:normal;font-variant:normal;font-weight:normal;font-stretch:normal;font-size:33.75004578px;font-family:Abel;-inkscape-font-specification:Abel;letter-spacing:1.00000131px;fill:#e6e6e6"
           id="path4674" /><path
           d="m 614.34336,-1047.746 q 0,1.0218 -0.41199,1.8787 -0.41199,0.8404 -1.12061,1.4502 -0.70862,0.6097 -1.64795,0.9558 -0.92285,0.3296 -1.94458,0.3296 l -1.35132,0 q -1.02173,0 -1.96106,-0.379 -0.92286,-0.3956 -1.63148,-1.0712 -0.69214,-0.6757 -1.1206,-1.582 -0.41199,-0.9064 -0.41199,-1.9281 l 0,-0.6757 2.02698,-0.3296 0,1.1206 q 0,0.6098 0.24719,1.1536 0.26367,0.5273 0.69214,0.9228 0.42847,0.3955 0.98877,0.6262 0.56031,0.2308 1.17005,0.2308 l 1.35132,0 q 0.60974,0 1.17004,-0.1813 0.56031,-0.1813 0.98877,-0.5109 0.44495,-0.346 0.69214,-0.824 0.26368,-0.4779 0.26368,-1.0876 0,-0.9064 -0.39551,-1.4832 -0.39551,-0.5767 -1.05469,-0.9558 -0.6427,-0.3955 -1.48316,-0.6427 -0.82397,-0.2636 -1.69739,-0.5108 -0.87341,-0.2637 -1.71387,-0.5933 -0.82397,-0.3296 -1.48315,-0.8569 -0.6427,-0.5439 -1.03821,-1.3514 -0.39551,-0.8074 -0.39551,-2.0105 0,-1.0217 0.39551,-1.8621 0.39551,-0.857 1.07117,-1.4667 0.67566,-0.6098 1.56555,-0.9393 0.90637,-0.3461 1.9281,-0.3461 l 1.18653,0 q 1.02173,0 1.9281,0.3955 0.90637,0.379 1.58203,1.0547 0.67566,0.6756 1.05469,1.582 0.39551,0.9064 0.39551,1.9281 l 0,0.066 -2.02698,0.3296 0,-0.5108 q 0,-0.6098 -0.23071,-1.1371 -0.23072,-0.5439 -0.62622,-0.9394 -0.39551,-0.3955 -0.93934,-0.6262 -0.52734,-0.2307 -1.13708,-0.2307 l -1.18653,0 q -0.60974,0 -1.15356,0.1813 -0.52735,0.1813 -0.92286,0.5273 -0.3955,0.3296 -0.62622,0.8075 -0.23071,0.4779 -0.23071,1.0877 0,0.8734 0.39551,1.4337 0.39551,0.5438 1.03821,0.9228 0.65918,0.3791 1.48315,0.6427 0.84046,0.2472 1.69739,0.5274 0.87342,0.2637 1.69739,0.6097 0.84046,0.3461 1.48316,0.8899 0.65918,0.5438 1.05469,1.3678 0.39551,0.8075 0.39551,2.0105 z"
           style="font-style:normal;font-variant:normal;font-weight:normal;font-stretch:normal;font-size:33.75004578px;font-family:Abel;-inkscape-font-specification:Abel;letter-spacing:1.00000131px;fill:#e6e6e6"
           id="path4676" /><path
           d="m 639.28284,-1048.092 q 0,1.0217 -0.39551,1.9281 -0.37903,0.9063 -1.05469,1.582 -0.67566,0.6756 -1.58203,1.0712 -0.90637,0.379 -1.9281,0.379 l -1.35132,0 q -1.02173,0 -1.92811,-0.379 -0.90637,-0.3956 -1.58203,-1.0712 -0.67566,-0.6757 -1.07117,-1.582 -0.37903,-0.9064 -0.37903,-1.9281 l 0,-7.6136 q 0,-1.0217 0.37903,-1.9281 0.39551,-0.9064 1.07117,-1.582 0.67566,-0.6757 1.58203,-1.0547 0.90638,-0.3955 1.92811,-0.3955 l 1.35132,0 q 1.02173,0 1.9281,0.3955 0.90637,0.379 1.58203,1.0547 0.67566,0.6756 1.05469,1.582 0.39551,0.9064 0.39551,1.9281 l 0,3.9716 -9.24501,0 0,3.7573 q 0,0.6098 0.23072,1.1536 0.23071,0.5273 0.62622,0.9228 0.39551,0.3955 0.92285,0.6262 0.54382,0.2308 1.15357,0.2308 l 1.35132,0 q 0.60974,0 1.13708,-0.2308 0.54383,-0.2307 0.93933,-0.6262 0.39551,-0.3955 0.62623,-0.9228 0.23071,-0.5438 0.23071,-1.1536 l 0,-1.1206 2.02698,0.3296 0,0.6757 0,0 z m -2.02698,-7.7289 q 0,-0.6098 -0.23071,-1.1371 -0.23072,-0.5439 -0.62623,-0.9394 -0.3955,-0.3955 -0.93933,-0.6262 -0.52734,-0.2307 -1.13708,-0.2307 l -1.35132,0 q -0.60975,0 -1.15357,0.2307 -0.52734,0.2307 -0.92285,0.6262 -0.39551,0.3955 -0.62622,0.9394 -0.23072,0.5273 -0.23072,1.1371 l 0,2.5048 7.21803,0 0,-2.5048 z"
           style="font-style:normal;font-variant:normal;font-weight:normal;font-stretch:normal;font-size:33.75004578px;font-family:Abel;-inkscape-font-specification:Abel;letter-spacing:1.00000131px;fill:#e6e6e6"
           id="path4678" /><path
           d="m 653.61475,-1043.4613 0,-12.3596 q 0,-0.6098 -0.23072,-1.1371 -0.23071,-0.5439 -0.62622,-0.9394 -0.39551,-0.3955 -0.93933,-0.6262 -0.52735,-0.2307 -1.13709,-0.2307 l -1.35132,0 q -0.60974,0 -1.15356,0.2307 -0.52735,0.2307 -0.92286,0.6262 -0.3955,0.3955 -0.62622,0.9394 -0.23071,0.5273 -0.23071,1.1371 l 0,12.3596 -2.02698,0 0,-16.875 0.67566,0 1.10413,1.7138 q 0.69214,-0.9393 1.73035,-1.4831 1.05468,-0.5603 2.29065,-0.5603 l 0.51086,0 q 1.02173,0 1.92811,0.3955 0.90637,0.379 1.58203,1.0547 0.67566,0.6756 1.05469,1.582 0.39551,0.9064 0.39551,1.9281 l 0,12.2443 -2.02698,0 z"
           style="font-style:normal;font-variant:normal;font-weight:normal;font-stretch:normal;font-size:33.75004578px;font-family:Abel;-inkscape-font-specification:Abel;letter-spacing:1.00000131px;fill:#e6e6e6"
           id="path4680" /><path
           d="m 666.87555,-1043.4613 q -0.92286,0 -1.74683,-0.3461 -0.8075,-0.346 -1.41724,-0.9558 -0.59326,-0.6097 -0.95581,-1.4172 -0.34607,-0.8075 -0.34607,-1.7304 l 0,-10.4974 -3.03223,0 0,-1.9281 3.03223,0 0,-4.054 2.02698,-0.3296 0,4.3836 4.28467,0 0,1.9281 -4.28467,0 0,10.5963 q 0,0.5109 0.18127,0.9558 0.19776,0.4285 0.52735,0.7581 0.32959,0.3296 0.77453,0.5273 0.44495,0.1813 0.95582,0.1813 l 1.8457,0 0,1.9281 -1.8457,0 z"
           style="font-style:normal;font-variant:normal;font-weight:normal;font-stretch:normal;font-size:33.75004578px;font-family:Abel;-inkscape-font-specification:Abel;letter-spacing:1.00000131px;fill:#e6e6e6"
           id="path4682" /><path
           d="m 682.70709,-1043.4613 0,-12.3596 q 0,-0.6098 -0.23071,-1.1371 -0.23071,-0.5439 -0.62622,-0.9394 -0.39551,-0.3955 -0.93933,-0.6262 -0.52735,-0.2307 -1.13709,-0.2307 l -1.35132,0 q -0.60974,0 -1.15357,0.2307 -0.52734,0.2307 -0.92285,0.6262 -0.39551,0.3955 -0.62622,0.9394 -0.23072,0.5273 -0.23072,1.1371 l 0,12.3596 -2.02698,0 0,-23.6316 2.02698,0 0,8.1738 q 0.69214,-0.824 1.66444,-1.2854 0.97229,-0.4614 2.10937,-0.4614 l 0.51087,0 q 1.02173,0 1.9281,0.3955 0.90638,0.379 1.58204,1.0547 0.67566,0.6756 1.05468,1.582 0.39551,0.9064 0.39551,1.9281 l 0,12.2443 -2.02698,0 z"
           style="font-style:normal;font-variant:normal;font-weight:normal;font-stretch:normal;font-size:33.75004578px;font-family:Abel;-inkscape-font-specification:Abel;letter-spacing:1.00000131px;fill:#e6e6e6"
           id="path4684" /><path
           d="m 700.4173,-1043.4613 -1.12061,-1.7139 q -0.69214,0.9394 -1.73035,1.4997 -1.03821,0.5438 -2.27417,0.5438 l -0.51086,0 q -1.02173,0 -1.92811,-0.379 -0.90637,-0.3956 -1.58203,-1.0712 -0.67566,-0.6757 -1.07117,-1.582 -0.37903,-0.9064 -0.37903,-1.9281 l 0,-12.2443 2.02698,0 0,12.3596 q 0,0.6098 0.23071,1.1536 0.23072,0.5273 0.62623,0.9228 0.3955,0.3955 0.92285,0.6262 0.54382,0.2308 1.15357,0.2308 l 1.35132,0 q 0.60974,0 1.13708,-0.2308 0.54383,-0.2307 0.93933,-0.6262 0.39551,-0.3955 0.62623,-0.9228 0.23071,-0.5438 0.23071,-1.1536 l 0,-12.3596 2.02698,0 0,16.875 -0.67566,0 z"
           style="font-style:normal;font-variant:normal;font-weight:normal;font-stretch:normal;font-size:33.75004578px;font-family:Abel;-inkscape-font-specification:Abel;letter-spacing:1.00000131px;fill:#e6e6e6"
           id="path4686" /><path
           d="m 717.7815,-1047.746 q 0,1.0218 -0.41199,1.8787 -0.41199,0.8404 -1.12061,1.4502 -0.70862,0.6097 -1.64795,0.9558 -0.92285,0.3296 -1.94458,0.3296 l -1.35132,0 q -1.02173,0 -1.96106,-0.379 -0.92286,-0.3956 -1.63148,-1.0712 -0.69214,-0.6757 -1.1206,-1.582 -0.41199,-0.9064 -0.41199,-1.9281 l 0,-0.6757 2.02698,-0.3296 0,1.1206 q 0,0.6098 0.24719,1.1536 0.26367,0.5273 0.69214,0.9228 0.42847,0.3955 0.98877,0.6262 0.56031,0.2308 1.17005,0.2308 l 1.35132,0 q 0.60974,0 1.17004,-0.1813 0.56031,-0.1813 0.98877,-0.5109 0.44495,-0.346 0.69214,-0.824 0.26368,-0.4779 0.26368,-1.0876 0,-0.9064 -0.39551,-1.4832 -0.39551,-0.5767 -1.05469,-0.9558 -0.6427,-0.3955 -1.48316,-0.6427 -0.82397,-0.2636 -1.69739,-0.5108 -0.87341,-0.2637 -1.71387,-0.5933 -0.82397,-0.3296 -1.48315,-0.8569 -0.6427,-0.5439 -1.03821,-1.3514 -0.39551,-0.8074 -0.39551,-2.0105 0,-1.0217 0.39551,-1.8621 0.39551,-0.857 1.07117,-1.4667 0.67566,-0.6098 1.56555,-0.9393 0.90637,-0.3461 1.9281,-0.3461 l 1.18653,0 q 1.02173,0 1.9281,0.3955 0.90637,0.379 1.58203,1.0547 0.67567,0.6756 1.05469,1.582 0.39551,0.9064 0.39551,1.9281 l 0,0.066 -2.02698,0.3296 0,-0.5108 q 0,-0.6098 -0.23071,-1.1371 -0.23071,-0.5439 -0.62622,-0.9394 -0.39551,-0.3955 -0.93934,-0.6262 -0.52734,-0.2307 -1.13708,-0.2307 l -1.18653,0 q -0.60974,0 -1.15356,0.1813 -0.52735,0.1813 -0.92286,0.5273 -0.3955,0.3296 -0.62622,0.8075 -0.23071,0.4779 -0.23071,1.0877 0,0.8734 0.39551,1.4337 0.39551,0.5438 1.03821,0.9228 0.65918,0.3791 1.48315,0.6427 0.84046,0.2472 1.69739,0.5274 0.87342,0.2637 1.69739,0.6097 0.84046,0.3461 1.48316,0.8899 0.65918,0.5438 1.05469,1.3678 0.39551,0.8075 0.39551,2.0105 z"
           style="font-style:normal;font-variant:normal;font-weight:normal;font-stretch:normal;font-size:33.75004578px;font-family:Abel;-inkscape-font-specification:Abel;letter-spacing:1.00000131px;fill:#e6e6e6"
           id="path4688" /><path
           d="m 723.18151,-1064.3903 0,-2.7026 2.35657,0 0,2.7026 -2.35657,0 z m 0.16479,20.929 0,-16.875 2.02698,0 0,16.875 -2.02698,0 z"
           style="font-style:normal;font-variant:normal;font-weight:normal;font-stretch:normal;font-size:33.75004578px;font-family:Abel;-inkscape-font-specification:Abel;letter-spacing:1.00000131px;fill:#e6e6e6"
           id="path4690" /><path
           d="m 741.7157,-1043.4613 -1.12061,-1.6809 q -0.69214,0.9064 -1.73035,1.4667 -1.03821,0.5438 -2.27417,0.5438 l -0.51086,0 q -1.02173,0 -1.92811,-0.379 -0.90637,-0.3956 -1.58203,-1.0712 -0.67566,-0.6757 -1.07117,-1.582 -0.37903,-0.9064 -0.37903,-1.9281 l 0,-0.1648 q 0,-1.0218 0.37903,-1.9281 0.39551,-0.9064 1.07117,-1.5821 0.67566,-0.6756 1.58203,-1.0547 0.90638,-0.3955 1.92811,-0.3955 l 4.28467,0 0,-2.6037 q 0,-0.6098 -0.23071,-1.1371 -0.23072,-0.5439 -0.62622,-0.9394 -0.39551,-0.3955 -0.93934,-0.6262 -0.52734,-0.2307 -1.13708,-0.2307 l -1.18653,0 q -0.60974,0 -1.15356,0.2307 -0.52735,0.2307 -0.92286,0.6262 -0.39551,0.3955 -0.62622,0.9394 -0.23071,0.5273 -0.23071,1.1371 l 0,0.6097 -2.02698,-0.3296 0,-0.1648 q 0,-1.0217 0.37903,-1.9281 0.3955,-0.9064 1.07116,-1.582 0.67566,-0.6757 1.58204,-1.0547 0.90637,-0.3955 1.9281,-0.3955 l 1.18653,0 q 1.02173,0 1.9281,0.3955 0.90637,0.379 1.58203,1.0547 0.67566,0.6756 1.05469,1.582 0.39551,0.9064 0.39551,1.9281 l 0,12.2443 -0.67566,0 z m -1.35132,-8.1738 -4.28467,0 q -0.60975,0 -1.15357,0.2307 -0.52734,0.2307 -0.92285,0.6427 -0.39551,0.3955 -0.62622,0.9393 -0.23072,0.5273 -0.23072,1.1371 l 0,0.7086 q 0,0.6098 0.23072,1.1536 0.23071,0.5273 0.62622,0.9228 0.39551,0.3955 0.92285,0.6262 0.54382,0.2308 1.15357,0.2308 l 1.35132,0 q 0.60974,0 1.13708,-0.2308 0.54383,-0.2307 0.93934,-0.6262 0.3955,-0.3955 0.62622,-0.9228 0.23071,-0.5438 0.23071,-1.1536 l 0,-3.6584 z"
           style="font-style:normal;font-variant:normal;font-weight:normal;font-stretch:normal;font-size:33.75004578px;font-family:Abel;-inkscape-font-specification:Abel;letter-spacing:1.00000131px;fill:#e6e6e6"
           id="path4692" /><path
           d="m 759.0799,-1047.746 q 0,1.0218 -0.41199,1.8787 -0.41199,0.8404 -1.12061,1.4502 -0.70862,0.6097 -1.64795,0.9558 -0.92285,0.3296 -1.94458,0.3296 l -1.35132,0 q -1.02173,0 -1.96106,-0.379 -0.92286,-0.3956 -1.63148,-1.0712 -0.69213,-0.6757 -1.1206,-1.582 -0.41199,-0.9064 -0.41199,-1.9281 l 0,-0.6757 2.02698,-0.3296 0,1.1206 q 0,0.6098 0.24719,1.1536 0.26368,0.5273 0.69214,0.9228 0.42847,0.3955 0.98877,0.6262 0.56031,0.2308 1.17005,0.2308 l 1.35132,0 q 0.60974,0 1.17004,-0.1813 0.56031,-0.1813 0.98878,-0.5109 0.44494,-0.346 0.69214,-0.824 0.26367,-0.4779 0.26367,-1.0876 0,-0.9064 -0.39551,-1.4832 -0.39551,-0.5767 -1.05469,-0.9558 -0.6427,-0.3955 -1.48316,-0.6427 -0.82397,-0.2636 -1.69739,-0.5108 -0.87341,-0.2637 -1.71387,-0.5933 -0.82397,-0.3296 -1.48315,-0.8569 -0.6427,-0.5439 -1.03821,-1.3514 -0.39551,-0.8074 -0.39551,-2.0105 0,-1.0217 0.39551,-1.8621 0.39551,-0.857 1.07117,-1.4667 0.67566,-0.6098 1.56555,-0.9393 0.90637,-0.3461 1.9281,-0.3461 l 1.18653,0 q 1.02173,0 1.9281,0.3955 0.90638,0.379 1.58204,1.0547 0.67566,0.6756 1.05468,1.582 0.39551,0.9064 0.39551,1.9281 l 0,0.066 -2.02698,0.3296 0,-0.5108 q 0,-0.6098 -0.23071,-1.1371 -0.23071,-0.5439 -0.62622,-0.9394 -0.39551,-0.3955 -0.93933,-0.6262 -0.52735,-0.2307 -1.13709,-0.2307 l -1.18653,0 q -0.60974,0 -1.15356,0.1813 -0.52735,0.1813 -0.92285,0.5273 -0.39551,0.3296 -0.62623,0.8075 -0.23071,0.4779 -0.23071,1.0877 0,0.8734 0.39551,1.4337 0.39551,0.5438 1.03821,0.9228 0.65918,0.3791 1.48315,0.6427 0.84046,0.2472 1.69739,0.5274 0.87342,0.2637 1.69739,0.6097 0.84046,0.3461 1.48316,0.8899 0.65918,0.5438 1.05469,1.3678 0.39551,0.8075 0.39551,2.0105 z"
           style="font-style:normal;font-variant:normal;font-weight:normal;font-stretch:normal;font-size:33.75004578px;font-family:Abel;-inkscape-font-specification:Abel;letter-spacing:1.00000131px;fill:#e6e6e6"
           id="path4694" /><path
           d="m 770.1159,-1043.4613 q -0.92285,0 -1.74683,-0.3461 -0.80749,-0.346 -1.41724,-0.9558 -0.59326,-0.6097 -0.95581,-1.4172 -0.34607,-0.8075 -0.34607,-1.7304 l 0,-10.4974 -3.03223,0 0,-1.9281 3.03223,0 0,-4.054 2.02698,-0.3296 0,4.3836 4.28468,0 0,1.9281 -4.28468,0 0,10.5963 q 0,0.5109 0.18128,0.9558 0.19775,0.4285 0.52734,0.7581 0.32959,0.3296 0.77454,0.5273 0.44495,0.1813 0.95581,0.1813 l 1.84571,0 0,1.9281 -1.84571,0 z"
           style="font-style:normal;font-variant:normal;font-weight:normal;font-stretch:normal;font-size:33.75004578px;font-family:Abel;-inkscape-font-specification:Abel;letter-spacing:1.00000131px;fill:#e6e6e6"
           id="path4696" /><path
           d="m 788.30402,-1047.746 q 0,1.0218 -0.41199,1.8787 -0.41199,0.8404 -1.12061,1.4502 -0.70861,0.6097 -1.64795,0.9558 -0.92285,0.3296 -1.94458,0.3296 l -1.35132,0 q -1.02173,0 -1.96106,-0.379 -0.92285,-0.3956 -1.63147,-1.0712 -0.69214,-0.6757 -1.12061,-1.582 -0.41199,-0.9064 -0.41199,-1.9281 l 0,-0.6757 2.02698,-0.3296 0,1.1206 q 0,0.6098 0.24719,1.1536 0.26368,0.5273 0.69214,0.9228 0.42847,0.3955 0.98877,0.6262 0.56031,0.2308 1.17005,0.2308 l 1.35132,0 q 0.60974,0 1.17005,-0.1813 0.5603,-0.1813 0.98877,-0.5109 0.44494,-0.346 0.69214,-0.824 0.26367,-0.4779 0.26367,-1.0876 0,-0.9064 -0.39551,-1.4832 -0.39551,-0.5767 -1.05469,-0.9558 -0.6427,-0.3955 -1.48316,-0.6427 -0.82397,-0.2636 -1.69739,-0.5108 -0.87341,-0.2637 -1.71386,-0.5933 -0.82398,-0.3296 -1.48316,-0.8569 -0.6427,-0.5439 -1.03821,-1.3514 -0.39551,-0.8074 -0.39551,-2.0105 0,-1.0217 0.39551,-1.8621 0.39551,-0.857 1.07117,-1.4667 0.67566,-0.6098 1.56555,-0.9393 0.90638,-0.3461 1.92811,-0.3461 l 1.18652,0 q 1.02173,0 1.9281,0.3955 0.90638,0.379 1.58204,1.0547 0.67566,0.6756 1.05469,1.582 0.3955,0.9064 0.3955,1.9281 l 0,0.066 -2.02698,0.3296 0,-0.5108 q 0,-0.6098 -0.23071,-1.1371 -0.23071,-0.5439 -0.62622,-0.9394 -0.39551,-0.3955 -0.93933,-0.6262 -0.52735,-0.2307 -1.13709,-0.2307 l -1.18652,0 q -0.60975,0 -1.15357,0.1813 -0.52735,0.1813 -0.92285,0.5273 -0.39551,0.3296 -0.62623,0.8075 -0.23071,0.4779 -0.23071,1.0877 0,0.8734 0.39551,1.4337 0.39551,0.5438 1.03821,0.9228 0.65918,0.3791 1.48316,0.6427 0.84045,0.2472 1.69739,0.5274 0.87341,0.2637 1.69739,0.6097 0.84045,0.3461 1.48315,0.8899 0.65918,0.5438 1.05469,1.3678 0.39551,0.8075 0.39551,2.0105 z"
           style="font-style:normal;font-variant:normal;font-weight:normal;font-stretch:normal;font-size:33.75004578px;font-family:Abel;-inkscape-font-specification:Abel;letter-spacing:1.00000131px;fill:#e6e6e6"
           id="path4698" /><path
           d="m 794.37975,-1038.7317 -0.85693,0 0,-7.2674 2.53784,0 -1.68091,7.2674 z"
           style="font-style:normal;font-variant:normal;font-weight:normal;font-stretch:normal;font-size:33.75004578px;font-family:Abel;-inkscape-font-specification:Abel;letter-spacing:1.00000131px;fill:#e6e6e6"
           id="path4700" /></g><text
         xml:space="preserve"
         style="font-style:normal;font-weight:normal;font-size:40px;line-height:125%;font-family:sans-serif;letter-spacing:0px;word-spacing:0px;fill:#e6e6e6;fill-opacity:1;stroke:none;stroke-width:1px;stroke-linecap:butt;stroke-linejoin:miter;stroke-opacity:1;image-rendering:optimizeQuality;shape-rendering:geometricPrecision;text-rendering:geometricPrecision"
         x="127.39535"
         y="-956.02368"
         id="text4464-3"
         sodipodi:linespacing="125%"
         transform="scale(1.0103023,0.98980276)"><tspan
           sodipodi:role="line"
           x="127.39535"
           y="-956.02368"
           id="tspan4468-3"
           style="font-style:normal;font-variant:normal;font-weight:normal;font-stretch:normal;font-size:33.75004578px;font-family:Abel;-inkscape-font-specification:Abel;letter-spacing:1.00000131px;fill:#e6e6e6">dynamic realm of creativity with a purview</tspan></text>
<text
         xml:space="preserve"
         style="font-style:normal;font-weight:normal;font-size:40px;line-height:125%;font-family:sans-serif;letter-spacing:1.00000131px;word-spacing:0px;fill:#e6e6e6;fill-opacity:1;stroke:none;stroke-width:1px;stroke-linecap:butt;stroke-linejoin:miter;stroke-opacity:1;image-rendering:optimizeQuality;shape-rendering:geometricPrecision;text-rendering:geometricPrecision"
         x="128.21643"
         y="-1000.0238"
         id="text4464-3-7"
         sodipodi:linespacing="125%"
         transform="scale(1.0103023,0.98980276)"><tspan
           sodipodi:role="line"
           x="128.21643"
           y="-1000.0238"
           id="tspan4468-3-2"
           style="font-style:normal;font-variant:normal;font-weight:normal;font-stretch:normal;font-size:33.75004578px;font-family:Abel;-inkscape-font-specification:Abel;letter-spacing:1.00000131px;fill:#e6e6e6">passionate for pursuing technologies in an ever</tspan></text>
<text
         xml:space="preserve"
         style="font-style:normal;font-weight:normal;font-size:40px;line-height:125%;font-family:sans-serif;letter-spacing:0px;word-spacing:0px;fill:#e6e6e6;fill-opacity:1;stroke:none;stroke-width:1px;stroke-linecap:butt;stroke-linejoin:miter;stroke-opacity:1;image-rendering:optimizeQuality;shape-rendering:geometricPrecision;text-rendering:geometricPrecision"
         x="128.37906"
         y="-912.62354"
         id="text4464-3-8"
         sodipodi:linespacing="125%"
         transform="scale(1.0103023,0.98980276)"><tspan
           sodipodi:role="line"
           x="128.37906"
           y="-912.62354"
           id="tspan4468-3-9"
           style="font-style:normal;font-variant:normal;font-weight:normal;font-stretch:normal;font-size:33.75004578px;font-family:Abel;-inkscape-font-specification:Abel;letter-spacing:1.00000131px;fill:#e6e6e6">to spread the same.</tspan></text>
<text
         xml:space="preserve"
         style="font-style:normal;font-weight:normal;font-size:40px;line-height:125%;font-family:sans-serif;letter-spacing:0px;word-spacing:0px;fill:#000000;fill-opacity:1;stroke:none;stroke-width:1px;stroke-linecap:butt;stroke-linejoin:miter;stroke-opacity:1"
         x="206.37547"
         y="-1221.6615"
         id="text4529"
         sodipodi:linespacing="125%"
         transform="scale(1.0103023,0.98980277)"><tspan
           sodipodi:role="line"
           id="tspan4531"
           x="206.37547"
           y="-1221.6615" /></text>
<text
         xml:space="preserve"
         style="font-style:normal;font-weight:normal;font-size:40px;line-height:125%;font-family:sans-serif;letter-spacing:0px;word-spacing:0px;fill:#e6e6e6;fill-opacity:1;stroke:none;stroke-width:1px;stroke-linecap:butt;stroke-linejoin:miter;stroke-opacity:1;image-rendering:optimizeQuality;shape-rendering:geometricPrecision;text-rendering:geometricPrecision"
         x="127.32295"
         y="-858.02344"
         id="text4464-3-8-9"
         sodipodi:linespacing="125%"
         transform="scale(1.0103023,0.98980276)"><tspan
           sodipodi:role="line"
           x="127.32295"
           y="-858.02344"
           id="tspan4468-3-9-2"
           style="font-style:normal;font-variant:normal;font-weight:normal;font-stretch:normal;font-size:33.75004578px;font-family:Abel;-inkscape-font-specification:Abel;letter-spacing:1.00000131px;fill:#e6e6e6">Apart from the usual nerd gathering around the</tspan></text>
<text
         xml:space="preserve"
         style="font-style:normal;font-weight:normal;font-size:40px;line-height:125%;font-family:sans-serif;letter-spacing:0px;word-spacing:0px;fill:#e6e6e6;fill-opacity:1;stroke:none;stroke-width:1px;stroke-linecap:butt;stroke-linejoin:miter;stroke-opacity:1;image-rendering:optimizeQuality;shape-rendering:geometricPrecision;text-rendering:geometricPrecision"
         x="128.22319"
         y="-768.62347"
         id="text4464-3-8-9-8-1"
         sodipodi:linespacing="125%"
         transform="scale(1.0103023,0.98980276)"><tspan
           sodipodi:role="line"
           x="128.22319"
           y="-768.62347"
           id="tspan4468-3-9-2-7-3"
           style="font-style:normal;font-variant:normal;font-weight:normal;font-stretch:normal;font-size:33.75004578px;font-family:Abel;-inkscape-font-specification:Abel;letter-spacing:1.00000131px;fill:#e6e6e6">paranthas and masala papad at Annapoorna while</tspan></text>
<text
         xml:space="preserve"
         style="font-style:normal;font-weight:normal;font-size:40px;line-height:125%;font-family:sans-serif;letter-spacing:0px;word-spacing:0px;fill:#e6e6e6;fill-opacity:1;stroke:none;stroke-width:1px;stroke-linecap:butt;stroke-linejoin:miter;stroke-opacity:1;image-rendering:optimizeQuality;shape-rendering:geometricPrecision;text-rendering:geometricPrecision"
         x="128.42981"
         y="-724.62335"
         id="text4464-3-8-9-8-1-7"
         sodipodi:linespacing="125%"
         transform="scale(1.0103023,0.98980276)"><tspan
           sodipodi:role="line"
           x="128.42981"
           y="-724.62335"
           id="tspan4468-3-9-2-7-3-3"
           style="font-style:normal;font-variant:normal;font-weight:normal;font-stretch:normal;font-size:33.75004578px;font-family:Abel;-inkscape-font-specification:Abel;letter-spacing:1.00000131px;fill:#e6e6e6">discussing over the flat and material design ideas.</tspan></text>
<text
         xml:space="preserve"
         style="font-style:normal;font-weight:normal;font-size:40px;line-height:125%;font-family:sans-serif;letter-spacing:0px;word-spacing:0px;fill:#e6e6e6;fill-opacity:1;stroke:none;stroke-width:1px;stroke-linecap:butt;stroke-linejoin:miter;stroke-opacity:1;image-rendering:optimizeQuality;shape-rendering:geometricPrecision;text-rendering:geometricPrecision"
         x="128.22318"
         y="-812.62347"
         id="text4464-3-8-9-8-3"
         sodipodi:linespacing="125%"
         transform="scale(1.0103023,0.98980276)"><tspan
           sodipodi:role="line"
           x="128.22318"
           y="-812.62347"
           id="tspan4468-3-9-2-7-6"
           style="font-style:normal;font-variant:normal;font-weight:normal;font-stretch:normal;font-size:33.75004578px;font-family:Abel;-inkscape-font-specification:Abel;letter-spacing:1.00000131px;fill:#e6e6e6">campus, you can also find us enjoying laccha </tspan></text>
</g></g></svg>